<svg width="39" height="49" viewBox="0 0 39 49" fill="none" xmlns="http://www.w3.org/2000/svg">
<g filter="url(#filter0_d_93_12)">
<path d="M27.5145 0.473633C25.6574 0.473633 23.8764 0.868613 22.5633 1.57168C21.2501 2.27475 20.5124 3.22832 20.5124 4.22261C20.5124 5.2169 21.2501 6.17047 22.5633 6.87354C23.8764 7.57661 25.6574 7.97159 27.5145 7.97159C29.3716 7.97159 31.1526 7.57661 32.4657 6.87354C33.7789 6.17047 34.5166 5.2169 34.5166 4.22261C34.5166 3.22832 33.7789 2.27475 32.4657 1.57168C31.1526 0.868613 29.3716 0.473633 27.5145 0.473633ZM25.834 12.3954C20.279 12.6453 5.10777 19.1185 5.10777 19.1185C4.17415 19.4934 4.45424 19.4684 5.20113 20.1683C5.94802 20.8431 5.85466 20.8931 6.74159 20.5681C7.67521 20.2432 9.21567 19.7184 11.7831 18.8686C21.6794 15.4695 13.3703 23.3174 9.12231 36.5388C7.4418 43.087 18.4584 39.7129 21.306 38.7132C24.1068 37.7385 31.6224 34.9642 32.3693 34.6893C33.3963 34.3144 32.6494 34.0145 31.8558 33.3896C31.2956 32.9648 30.7355 33.2647 30.7355 33.2647C27.7012 34.3394 22.1462 36.5888 21.3993 35.1642C20.5124 33.7395 26.2074 23.9672 29.335 17.2441C29.8485 15.6445 31.249 12.1454 25.834 12.3954Z" fill="#C99383"/>
<path d="M25.8565 12.8949L25.857 12.8948C27.1683 12.8343 27.9971 13.0057 28.5102 13.2679C28.9993 13.5177 29.2254 13.861 29.3228 14.2482C29.4266 14.6608 29.3897 15.152 29.2774 15.6707C29.186 16.0929 29.0548 16.4926 28.9368 16.8525C28.9134 16.9237 28.8906 16.9933 28.8686 17.0612C27.924 19.0897 26.7535 21.3811 25.597 23.6451C24.8407 25.1255 24.0904 26.5943 23.4131 27.9703C22.5603 29.7028 21.8244 31.2868 21.3571 32.533C21.1241 33.1544 20.9505 33.711 20.8657 34.1701C20.8233 34.3997 20.8 34.6209 20.8084 34.8226C20.8162 35.0139 20.8539 35.2252 20.9647 35.4118C21.1381 35.7306 21.4308 35.9144 21.7393 36.0122C22.0462 36.1096 22.4012 36.1339 22.7668 36.1191C23.4993 36.0893 24.4035 35.8953 25.3438 35.6333C26.7876 35.2311 28.4053 34.6419 29.7556 34.1502C30.1668 34.0004 30.5533 33.8596 30.9024 33.736L30.9381 33.7233L30.9649 33.709C30.9651 33.7089 30.9653 33.7088 30.9655 33.7087C30.9703 33.7065 30.9812 33.7019 30.9972 33.6963C31.0297 33.6849 31.0787 33.6712 31.1373 33.6651C31.2474 33.6537 31.3925 33.6671 31.5506 33.7857C31.6982 33.9017 31.8497 34.0112 31.979 34.1046C32.0295 34.1412 32.0767 34.1752 32.1189 34.2063C32.1322 34.2161 32.1449 34.2255 32.1571 34.2346C32.104 34.2542 32.0305 34.2813 31.9387 34.3151C30.4038 34.8808 23.7385 37.3372 21.1416 38.241L21.1403 38.2414C19.7224 38.7392 16.3139 39.8111 13.4903 39.9571C12.061 40.031 10.8995 39.8595 10.2034 39.3721C9.87229 39.1402 9.64199 38.8342 9.52875 38.4211C9.41336 38.0002 9.41066 37.4338 9.60298 36.6773C10.6543 33.4083 11.9574 30.4667 13.1725 27.9387C13.6458 26.9538 14.1101 26.0236 14.5412 25.1598C15.2088 23.8221 15.7969 22.6438 16.2162 21.6685C16.5621 20.8638 16.8165 20.1468 16.9048 19.5533C16.9914 18.9715 16.9377 18.3583 16.4635 17.9553C16.0212 17.5794 15.3624 17.5253 14.6251 17.6132C13.8612 17.7043 12.87 17.9667 11.6233 18.3948C9.056 19.2446 7.51373 19.77 6.57725 20.0959L6.57723 20.0959L6.5696 20.0987C6.33846 20.1833 6.20866 20.2291 6.11569 20.2513C6.08908 20.2576 6.07173 20.2604 6.06143 20.2616C6.04747 20.253 6.01585 20.2315 5.95779 20.1817C5.89916 20.1314 5.83985 20.0764 5.76369 20.0058C5.70261 19.9492 5.63069 19.8826 5.53961 19.8002C5.45318 19.7193 5.37078 19.646 5.29683 19.5815L5.30399 19.5784L5.10777 19.1186L5.10777 19.1185C5.30399 19.5784 5.30402 19.5784 5.30411 19.5784L5.30458 19.5782L5.30654 19.5773L5.31458 19.5739L5.34681 19.5602L5.47393 19.5064C5.58577 19.4592 5.75079 19.3898 5.96292 19.3014C6.38721 19.1245 6.99991 18.8713 7.75265 18.5667C9.25841 17.9573 11.3232 17.1424 13.5603 16.32C15.7984 15.4972 18.2037 14.6689 20.3919 14.0314C22.5915 13.3905 24.532 12.9545 25.8565 12.8949ZM32.4053 34.4464C32.4052 34.4464 32.4047 34.4456 32.4037 34.4442C32.4049 34.4457 32.4054 34.4465 32.4053 34.4464ZM6.04908 20.2624C6.04912 20.2623 6.04993 20.2623 6.05137 20.2624C6.04975 20.2625 6.04903 20.2624 6.04908 20.2624ZM4.95571 19.2781C4.9558 19.2781 4.95686 19.2793 4.95865 19.2817C4.95652 19.2793 4.95563 19.2781 4.95571 19.2781ZM22.7993 2.01248C24.0241 1.35672 25.7198 0.973633 27.5145 0.973633C29.3092 0.973633 31.0049 1.35672 32.2297 2.01248C33.4696 2.67633 34.0166 3.49567 34.0166 4.22261C34.0166 4.94955 33.4696 5.76888 32.2297 6.43274C31.0049 7.0885 29.3092 7.47159 27.5145 7.47159C25.7198 7.47159 24.0241 7.0885 22.7993 6.43274C21.5594 5.76888 21.0124 4.94955 21.0124 4.22261C21.0124 3.49567 21.5594 2.67633 22.7993 2.01248Z" stroke="black"/>
</g>
<defs>
<filter id="filter0_d_93_12" x="0.516602" y="0.473633" width="38" height="48" filterUnits="userSpaceOnUse" color-interpolation-filters="sRGB">
<feFlood flood-opacity="0" result="BackgroundImageFix"/>
<feColorMatrix in="SourceAlpha" type="matrix" values="0 0 0 0 0 0 0 0 0 0 0 0 0 0 0 0 0 0 127 0" result="hardAlpha"/>
<feOffset dy="4"/>
<feGaussianBlur stdDeviation="2"/>
<feComposite in2="hardAlpha" operator="out"/>
<feColorMatrix type="matrix" values="0 0 0 0 0 0 0 0 0 0 0 0 0 0 0 0 0 0 0.25 0"/>
<feBlend mode="normal" in2="BackgroundImageFix" result="effect1_dropShadow_93_12"/>
<feBlend mode="normal" in="SourceGraphic" in2="effect1_dropShadow_93_12" result="shape"/>
</filter>
</defs>
</svg>