<svg width="42" height="42" viewBox="0 0 42 42" fill="none" xmlns="http://www.w3.org/2000/svg">
<g id="Vector">
<g filter="url(#filter0_i_16_275)">
<path fill-rule="evenodd" clip-rule="evenodd" d="M21 5C16.7565 5 12.6869 6.68571 9.68629 9.68629C6.68571 12.6869 5 16.7565 5 21V33C5 34.1046 4.10457 35 3 35C1.89543 35 1 34.1046 1 33V21C1 15.6957 3.10714 10.6086 6.85786 6.85786C10.6086 3.10714 15.6957 1 21 1C26.3043 1 31.3914 3.10714 35.1421 6.85786C38.8929 10.6086 41 15.6957 41 21V33C41 34.1046 40.1046 35 39 35C37.8954 35 37 34.1046 37 33V21C37 16.7565 35.3143 12.6869 32.3137 9.68629C29.3131 6.68571 25.2435 5 21 5Z" fill="#C99383"/>
<path fill-rule="evenodd" clip-rule="evenodd" d="M1 25C1 23.8954 1.89543 23 3 23H9C10.5913 23 12.1174 23.6321 13.2426 24.7574C14.3679 25.8826 15 27.4087 15 29V35C15 36.5913 14.3679 38.1174 13.2426 39.2426C12.1174 40.3679 10.5913 41 9 41H7C5.4087 41 3.88258 40.3679 2.75736 39.2426C1.63214 38.1174 1 36.5913 1 35V25ZM5 27V35C5 35.5304 5.21071 36.0391 5.58579 36.4142C5.96086 36.7893 6.46957 37 7 37H9C9.53043 37 10.0391 36.7893 10.4142 36.4142C10.7893 36.0391 11 35.5304 11 35V29C11 28.4696 10.7893 27.9609 10.4142 27.5858C10.0391 27.2107 9.53043 27 9 27H5ZM33 27C32.4696 27 31.9609 27.2107 31.5858 27.5858C31.2107 27.9609 31 28.4696 31 29V35C31 35.5304 31.2107 36.0391 31.5858 36.4142C31.9609 36.7893 32.4696 37 33 37H35C35.5304 37 36.0391 36.7893 36.4142 36.4142C36.7893 36.0391 37 35.5304 37 35V27H33ZM28.7574 24.7574C29.8826 23.6321 31.4087 23 33 23H39C40.1046 23 41 23.8954 41 25V35C41 36.5913 40.3679 38.1174 39.2426 39.2426C38.1174 40.3679 36.5913 41 35 41H33C31.4087 41 29.8826 40.3679 28.7574 39.2426C27.6321 38.1174 27 36.5913 27 35V29C27 27.4087 27.6321 25.8826 28.7574 24.7574Z" fill="#C99383"/>
</g>
<path d="M9 22.5H5.5V21C5.5 16.8891 7.13303 12.9467 10.0398 10.0398C12.9467 7.13303 16.8891 5.5 21 5.5C25.1109 5.5 29.0533 7.13303 31.9602 10.0398C34.867 12.9467 36.5 16.8891 36.5 21V22.5H33C31.2761 22.5 29.6228 23.1848 28.4038 24.4038C27.1848 25.6228 26.5 27.2761 26.5 29V35C26.5 36.7239 27.1848 38.3772 28.4038 39.5962C29.6228 40.8152 31.2761 41.5 33 41.5H35C36.7239 41.5 38.3772 40.8152 39.5962 39.5962C40.8152 38.3772 41.5 36.7239 41.5 35V33V25V21C41.5 15.5631 39.3402 10.3488 35.4957 6.50431C31.6512 2.65982 26.4369 0.5 21 0.5C15.5631 0.5 10.3488 2.65982 6.50431 6.50431C2.65981 10.3488 0.5 15.5631 0.5 21V25V33V35C0.5 36.7239 1.18482 38.3772 2.40381 39.5962C3.62279 40.8152 5.27609 41.5 7 41.5H9C10.7239 41.5 12.3772 40.8152 13.5962 39.5962C14.8152 38.3772 15.5 36.7239 15.5 35V29C15.5 27.2761 14.8152 25.6228 13.5962 24.4038C12.3772 23.1848 10.7239 22.5 9 22.5ZM36.5 27.5V33V35C36.5 35.3978 36.342 35.7794 36.0607 36.0607C35.7794 36.342 35.3978 36.5 35 36.5H33C32.6022 36.5 32.2206 36.342 31.9393 36.0607C31.658 35.7794 31.5 35.3978 31.5 35V29C31.5 28.6022 31.658 28.2206 31.9393 27.9393C32.2206 27.658 32.6022 27.5 33 27.5H36.5ZM5.5 33V27.5H9C9.39782 27.5 9.77936 27.658 10.0607 27.9393C10.342 28.2206 10.5 28.6022 10.5 29V35C10.5 35.3978 10.342 35.7794 10.0607 36.0607C9.77935 36.342 9.39782 36.5 9 36.5H7C6.60218 36.5 6.22065 36.342 5.93934 36.0607C5.65803 35.7794 5.5 35.3978 5.5 35V33Z" stroke="black" stroke-linecap="round" stroke-linejoin="round"/>
</g>
<defs>
<filter id="filter0_i_16_275" x="0" y="0" width="42" height="46" filterUnits="userSpaceOnUse" color-interpolation-filters="sRGB">
<feFlood flood-opacity="0" result="BackgroundImageFix"/>
<feBlend mode="normal" in="SourceGraphic" in2="BackgroundImageFix" result="shape"/>
<feColorMatrix in="SourceAlpha" type="matrix" values="0 0 0 0 0 0 0 0 0 0 0 0 0 0 0 0 0 0 127 0" result="hardAlpha"/>
<feOffset dy="4"/>
<feGaussianBlur stdDeviation="2"/>
<feComposite in2="hardAlpha" operator="arithmetic" k2="-1" k3="1"/>
<feColorMatrix type="matrix" values="0 0 0 0 0 0 0 0 0 0 0 0 0 0 0 0 0 0 0.25 0"/>
<feBlend mode="normal" in2="shape" result="effect1_innerShadow_16_275"/>
</filter>
</defs>
</svg>