<svg width="42" height="42" viewBox="0 0 42 42" fill="none" xmlns="http://www.w3.org/2000/svg">
<g id="Vector (Stroke)">
<g filter="url(#filter0_i_26_339)">
<path fill-rule="evenodd" clip-rule="evenodd" d="M21 5C17.3181 5 14.3333 7.68629 14.3333 11C14.3333 14.3137 17.3181 17 21 17C24.6819 17 27.6667 14.3137 27.6667 11C27.6667 7.68629 24.6819 5 21 5ZM9.88889 11C9.88889 5.47715 14.8635 1 21 1C27.1365 1 32.1111 5.47715 32.1111 11C32.1111 16.5228 27.1365 21 21 21C14.8635 21 9.88889 16.5228 9.88889 11ZM4.25437 27.9289C6.33811 26.0536 9.16426 25 12.1111 25H29.8889C32.8357 25 35.6619 26.0536 37.7456 27.9289C39.8294 29.8043 41 32.3478 41 35V39C41 40.1046 40.0051 41 38.7778 41C37.5505 41 36.5556 40.1046 36.5556 39V35C36.5556 33.4087 35.8532 31.8826 34.6029 30.7574C33.3527 29.6321 31.657 29 29.8889 29H12.1111C10.343 29 8.64731 29.6321 7.39707 30.7574C6.14682 31.8826 5.44444 33.4087 5.44444 35V39C5.44444 40.1046 4.44952 41 3.22222 41C1.99492 41 1 40.1046 1 39V35C1 32.3478 2.17063 29.8043 4.25437 27.9289Z" fill="#C99383"/>
</g>
<path d="M14.8333 11C14.8333 8.01068 17.5434 5.5 21 5.5C24.4566 5.5 27.1667 8.01068 27.1667 11C27.1667 13.9893 24.4566 16.5 21 16.5C17.5434 16.5 14.8333 13.9893 14.8333 11ZM21 0.5C14.6382 0.5 9.38889 5.15276 9.38889 11C9.38889 16.8472 14.6382 21.5 21 21.5C27.3618 21.5 32.6111 16.8472 32.6111 11C32.6111 5.15276 27.3618 0.5 21 0.5ZM12.1111 24.5C9.04766 24.5 6.10045 25.5948 3.91989 27.5573C1.73758 29.5214 0.5 32.1972 0.5 35V39C0.5 40.429 1.76964 41.5 3.22222 41.5C4.67481 41.5 5.94444 40.429 5.94444 39V35C5.94444 33.5593 6.57987 32.1655 7.73155 31.129C8.88496 30.0909 10.4596 29.5 12.1111 29.5H29.8889C31.5404 29.5 33.115 30.0909 34.2685 31.129C35.4201 32.1655 36.0556 33.5593 36.0556 35V39C36.0556 40.429 37.3252 41.5 38.7778 41.5C40.2304 41.5 41.5 40.429 41.5 39V35C41.5 32.1972 40.2624 29.5214 38.0801 27.5573C35.8995 25.5948 32.9523 24.5 29.8889 24.5H12.1111Z" stroke="black" stroke-linecap="round" stroke-linejoin="round"/>
</g>
<defs>
<filter id="filter0_i_26_339" x="0" y="0" width="42" height="46" filterUnits="userSpaceOnUse" color-interpolation-filters="sRGB">
<feFlood flood-opacity="0" result="BackgroundImageFix"/>
<feBlend mode="normal" in="SourceGraphic" in2="BackgroundImageFix" result="shape"/>
<feColorMatrix in="SourceAlpha" type="matrix" values="0 0 0 0 0 0 0 0 0 0 0 0 0 0 0 0 0 0 127 0" result="hardAlpha"/>
<feOffset dy="4"/>
<feGaussianBlur stdDeviation="2"/>
<feComposite in2="hardAlpha" operator="arithmetic" k2="-1" k3="1"/>
<feColorMatrix type="matrix" values="0 0 0 0 0 0 0 0 0 0 0 0 0 0 0 0 0 0 0.25 0"/>
<feBlend mode="normal" in2="shape" result="effect1_innerShadow_26_339"/>
</filter>
</defs>
</svg>