<svg width="42" height="42" viewBox="0 0 42 42" fill="none" xmlns="http://www.w3.org/2000/svg">
<g id="Vector (Stroke)">
<g filter="url(#filter0_i_26_345)">
<path fill-rule="evenodd" clip-rule="evenodd" d="M7.5 1.45283C7.73607 1.16777 8.10655 1 8.5 1H33.5C33.8934 1 34.2639 1.16777 34.5 1.45283L40.75 9C40.9123 9.19596 41 9.4343 41 9.67925V36.0943C41 37.3954 40.4293 38.6432 39.4135 39.5632C38.3977 40.4832 37.0199 41 35.5833 41H6.41667C4.98008 41 3.60233 40.4832 2.5865 39.5632C1.57068 38.6432 1 37.3954 1 36.0943V9.67925C1 9.4343 1.08772 9.19596 1.25 9L7.5 1.45283ZM9.125 3.26415L4.75 8.54717H37.25L32.875 3.26415H9.125ZM38.5 10.8113H3.5V36.0943C3.5 36.7949 3.80729 37.4668 4.35427 37.9622C4.90125 38.4575 5.64312 38.7359 6.41667 38.7359H35.5833C36.3569 38.7359 37.0987 38.4576 37.6457 37.9622C38.1927 37.4668 38.5 36.7949 38.5 36.0943V10.8113ZM12.6667 16.0943C13.357 16.0943 13.9167 16.6012 13.9167 17.2264C13.9167 18.9278 14.6629 20.5595 15.9913 21.7626C17.3197 22.9656 19.1214 23.6415 21 23.6415C22.8786 23.6415 24.6803 22.9656 26.0087 21.7626C27.3371 20.5595 28.0833 18.9278 28.0833 17.2264C28.0833 16.6012 28.643 16.0943 29.3333 16.0943C30.0237 16.0943 30.5833 16.6012 30.5833 17.2264C30.5833 19.5283 29.5737 21.7359 27.7764 23.3636C25.9792 24.9912 23.5417 25.9057 21 25.9057C18.4583 25.9057 16.0208 24.9912 14.2236 23.3636C12.4263 21.7359 11.4167 19.5283 11.4167 17.2264C11.4167 16.6012 11.9763 16.0943 12.6667 16.0943Z" fill="#C99383"/>
</g>
<path fill-rule="evenodd" clip-rule="evenodd" d="M7.5 1.45283C7.73607 1.16777 8.10655 1 8.5 1H33.5C33.8934 1 34.2639 1.16777 34.5 1.45283L40.75 9C40.9123 9.19596 41 9.4343 41 9.67925V36.0943C41 37.3954 40.4293 38.6432 39.4135 39.5632C38.3977 40.4832 37.0199 41 35.5833 41H6.41667C4.98008 41 3.60233 40.4832 2.5865 39.5632C1.57068 38.6432 1 37.3954 1 36.0943V9.67925C1 9.4343 1.08772 9.19596 1.25 9L7.5 1.45283ZM9.125 3.26415L4.75 8.54717H37.25L32.875 3.26415H9.125ZM38.5 10.8113H3.5V36.0943C3.5 36.7949 3.80729 37.4668 4.35427 37.9622C4.90125 38.4575 5.64312 38.7359 6.41667 38.7359H35.5833C36.3569 38.7359 37.0987 38.4576 37.6457 37.9622C38.1927 37.4668 38.5 36.7949 38.5 36.0943V10.8113ZM12.6667 16.0943C13.357 16.0943 13.9167 16.6012 13.9167 17.2264C13.9167 18.9278 14.6629 20.5595 15.9913 21.7626C17.3197 22.9656 19.1214 23.6415 21 23.6415C22.8786 23.6415 24.6803 22.9656 26.0087 21.7626C27.3371 20.5595 28.0833 18.9278 28.0833 17.2264C28.0833 16.6012 28.643 16.0943 29.3333 16.0943C30.0237 16.0943 30.5833 16.6012 30.5833 17.2264C30.5833 19.5283 29.5737 21.7359 27.7764 23.3636C25.9792 24.9912 23.5417 25.9057 21 25.9057C18.4583 25.9057 16.0208 24.9912 14.2236 23.3636C12.4263 21.7359 11.4167 19.5283 11.4167 17.2264C11.4167 16.6012 11.9763 16.0943 12.6667 16.0943Z" stroke="black" stroke-linecap="round" stroke-linejoin="round"/>
</g>
<defs>
<filter id="filter0_i_26_345" x="0.5" y="0.5" width="41" height="45" filterUnits="userSpaceOnUse" color-interpolation-filters="sRGB">
<feFlood flood-opacity="0" result="BackgroundImageFix"/>
<feBlend mode="normal" in="SourceGraphic" in2="BackgroundImageFix" result="shape"/>
<feColorMatrix in="SourceAlpha" type="matrix" values="0 0 0 0 0 0 0 0 0 0 0 0 0 0 0 0 0 0 127 0" result="hardAlpha"/>
<feOffset dy="4"/>
<feGaussianBlur stdDeviation="2"/>
<feComposite in2="hardAlpha" operator="arithmetic" k2="-1" k3="1"/>
<feColorMatrix type="matrix" values="0 0 0 0 0 0 0 0 0 0 0 0 0 0 0 0 0 0 0.25 0"/>
<feBlend mode="normal" in2="shape" result="effect1_innerShadow_26_345"/>
</filter>
</defs>
</svg>
