<svg width="43" height="42" viewBox="0 0 43 42" fill="none" xmlns="http://www.w3.org/2000/svg">
<g id="Vector (Stroke)">
<g filter="url(#filter0_i_26_428)">
<path fill-rule="evenodd" clip-rule="evenodd" d="M15.638 4.1952C19.1002 2.14935 23.796 1 28.6923 1H37.923C39.6224 1 41 1.81403 41 2.81818V10.0909C41 11.0951 39.6224 11.9091 37.923 11.9091H28.6923V15.5455H37.923C38.8705 15.5455 39.7652 15.8034 40.3483 16.2447C40.9314 16.686 41.1379 17.2614 40.9081 17.8046L37.8312 25.0773C37.4887 25.8867 36.258 26.4545 34.8461 26.4545H28.6923V39.1818C28.6923 40.186 27.3147 41 25.6154 41H13.3077C11.6083 41 10.2308 40.186 10.2308 39.1818V26.4545H4.07692C2.37758 26.4545 1 25.6405 1 24.6364V17.3636C1 16.3595 2.37758 15.5455 4.07692 15.5455H10.2308V11.9091C10.2308 9.01582 12.1758 6.24105 15.638 4.1952ZM28.6923 4.63636C25.4281 4.63636 22.2976 5.4026 19.9894 6.7665C17.6813 8.1304 16.3846 9.98024 16.3846 11.9091V17.3636C16.3846 18.3678 15.007 19.1818 13.3077 19.1818H7.15384V22.8182H13.3077C15.007 22.8182 16.3846 23.6322 16.3846 24.6364V37.3636H22.5384V24.6364C22.5384 23.6322 23.916 22.8182 25.6154 22.8182H32.4437L33.9822 19.1818H25.6154C23.916 19.1818 22.5384 18.3678 22.5384 17.3636V11.9091C22.5384 10.9447 23.1868 10.0197 24.3409 9.33779C25.4949 8.65584 27.0602 8.27273 28.6923 8.27273H34.8461V4.63636H28.6923Z" fill="#C99383"/>
</g>
<path d="M28.6923 0.5C23.7259 0.5 18.9381 1.6644 15.3837 3.76474C11.8355 5.8614 9.73076 8.77363 9.73076 11.9091V15.0455H4.07692C3.15354 15.0455 2.29322 15.2656 1.64684 15.6475C1.01164 16.0229 0.5 16.6131 0.5 17.3636V24.6364C0.5 25.3869 1.01164 25.9771 1.64684 26.3525C2.29322 26.7344 3.15354 26.9545 4.07692 26.9545H9.73076V39.1818C9.73076 39.9323 10.2424 40.5226 10.8776 40.8979C11.524 41.2799 12.3843 41.5 13.3077 41.5H25.6154C26.5387 41.5 27.3991 41.2799 28.0454 40.8979C28.6806 40.5226 29.1923 39.9323 29.1923 39.1818V26.9545H34.8461C35.6155 26.9545 36.3489 26.8004 36.9492 26.5235C37.5408 26.2505 38.0546 25.8326 38.2917 25.2722L41.3686 17.9994C41.7135 17.1842 41.3567 16.3808 40.65 15.846C39.9574 15.3218 38.9471 15.0455 37.923 15.0455H29.1923V12.4091H37.923C38.8464 12.4091 39.7067 12.189 40.3531 11.807C40.9883 11.4317 41.5 10.8414 41.5 10.0909V2.81818C41.5 2.06767 40.9883 1.47742 40.3531 1.10207C39.7067 0.720118 38.8464 0.5 37.923 0.5H28.6923ZM20.2438 7.19696C22.4597 5.88754 25.4981 5.13636 28.6923 5.13636H34.3461V7.77273H28.6923C26.9901 7.77273 25.3328 8.1709 24.0865 8.90733C22.8464 9.64009 22.0384 10.7025 22.0384 11.9091V17.3636C22.0384 18.1141 22.5501 18.7044 23.1853 19.0797C23.8317 19.4617 24.692 19.6818 25.6154 19.6818H33.2278L32.1124 22.3182H25.6154C24.692 22.3182 23.8317 22.5383 23.1853 22.9203C22.5501 23.2956 22.0384 23.8859 22.0384 24.6364V36.8636H16.8846V24.6364C16.8846 23.8859 16.373 23.2956 15.7378 22.9203C15.0914 22.5383 14.2311 22.3182 13.3077 22.3182H7.65384V19.6818H13.3077C14.2311 19.6818 15.0914 19.4617 15.7378 19.0797C16.373 18.7044 16.8846 18.1141 16.8846 17.3636V11.9091C16.8846 10.2224 18.0217 8.51005 20.2438 7.19696Z" stroke="black" stroke-linecap="round" stroke-linejoin="round"/>
</g>
<defs>
<filter id="filter0_i_26_428" x="0" y="0" width="42.0031" height="46" filterUnits="userSpaceOnUse" color-interpolation-filters="sRGB">
<feFlood flood-opacity="0" result="BackgroundImageFix"/>
<feBlend mode="normal" in="SourceGraphic" in2="BackgroundImageFix" result="shape"/>
<feColorMatrix in="SourceAlpha" type="matrix" values="0 0 0 0 0 0 0 0 0 0 0 0 0 0 0 0 0 0 127 0" result="hardAlpha"/>
<feOffset dy="4"/>
<feGaussianBlur stdDeviation="2"/>
<feComposite in2="hardAlpha" operator="arithmetic" k2="-1" k3="1"/>
<feColorMatrix type="matrix" values="0 0 0 0 0 0 0 0 0 0 0 0 0 0 0 0 0 0 0.25 0"/>
<feBlend mode="normal" in2="shape" result="effect1_innerShadow_26_428"/>
</filter>
</defs>
</svg>
