<svg width="42" height="42" viewBox="0 0 42 42" fill="none" xmlns="http://www.w3.org/2000/svg">
<g id="Vector (Stroke)">
<g filter="url(#filter0_i_26_427)">
<path fill-rule="evenodd" clip-rule="evenodd" d="M11.9091 4.63636C7.89247 4.63636 4.63636 7.89247 4.63636 11.9091V30.0909C4.63636 34.1075 7.89248 37.3636 11.9091 37.3636H30.0909C34.1075 37.3636 37.3636 34.1075 37.3636 30.0909V11.9091C37.3636 7.89248 34.1075 4.63636 30.0909 4.63636H11.9091ZM1 11.9091C1 5.88417 5.88417 1 11.9091 1H30.0909C36.1158 1 41 5.88417 41 11.9091V30.0909C41 36.1158 36.1158 41 30.0909 41H11.9091C5.88417 41 1 36.1158 1 30.0909V11.9091ZM29.1818 11C29.1818 9.99585 29.9958 9.18182 31 9.18182H31.0182C32.0223 9.18182 32.8364 9.99585 32.8364 11C32.8364 12.0042 32.0223 12.8182 31.0182 12.8182H31C29.9958 12.8182 29.1818 12.0042 29.1818 11ZM21.8788 15.5258C20.7439 15.3575 19.5848 15.5513 18.5665 16.0798C17.5481 16.6082 16.7223 17.4442 16.2065 18.469C15.6907 19.4938 15.5111 20.6552 15.6934 21.7879C15.8757 22.9206 16.4105 23.967 17.2217 24.7783C18.033 25.5895 19.0794 26.1243 20.2121 26.3066C21.3448 26.4889 22.5062 26.3093 23.531 25.7935C24.5558 25.2777 25.3918 24.4519 25.9202 23.4335C26.4487 22.4152 26.6425 21.2561 26.4742 20.1212C26.3026 18.9636 25.7631 17.8919 24.9356 17.0644C24.1081 16.2369 23.0364 15.6974 21.8788 15.5258ZM16.8917 12.852C18.5889 11.9714 20.5207 11.6483 22.4122 11.9288C24.3415 12.2149 26.1277 13.1139 27.5069 14.4931C28.8861 15.8723 29.7851 17.6585 30.0712 19.5878C30.3517 21.4793 30.0286 23.4111 29.148 25.1083C28.2673 26.8056 26.8738 28.182 25.1658 29.0417C23.4578 29.9013 21.5223 30.2006 19.6344 29.8968C17.7465 29.593 16.0025 28.7017 14.6504 27.3496C13.2983 25.9975 12.407 24.2535 12.1032 22.3656C11.7994 20.4777 12.0987 18.5422 12.9583 16.8342C13.818 15.1262 15.1944 13.7327 16.8917 12.852Z" fill="#C99383"/>
</g>
<path d="M5.13636 11.9091C5.13636 8.16862 8.16862 5.13636 11.9091 5.13636H30.0909C33.8314 5.13636 36.8636 8.16862 36.8636 11.9091V30.0909C36.8636 33.8314 33.8314 36.8636 30.0909 36.8636H11.9091C8.16862 36.8636 5.13636 33.8314 5.13636 30.0909V11.9091ZM11.9091 0.5C5.60802 0.5 0.5 5.60802 0.5 11.9091V30.0909C0.5 36.392 5.60802 41.5 11.9091 41.5H30.0909C36.392 41.5 41.5 36.392 41.5 30.0909V11.9091C41.5 5.60802 36.392 0.5 30.0909 0.5H11.9091ZM31 8.68182C29.7197 8.68182 28.6818 9.7197 28.6818 11C28.6818 12.2803 29.7197 13.3182 31 13.3182H31.0182C32.2985 13.3182 33.3364 12.2803 33.3364 11C33.3364 9.7197 32.2985 8.68182 31.0182 8.68182H31ZM18.7968 16.5236C19.7218 16.0436 20.7746 15.8675 21.8054 16.0204C22.8569 16.1763 23.8304 16.6663 24.5821 17.4179C25.3337 18.1696 25.8237 19.1431 25.9796 20.1946C26.1325 21.2254 25.9564 22.2782 25.4764 23.2033C24.9965 24.1283 24.237 24.8784 23.3062 25.3469C22.3753 25.8154 21.3204 25.9785 20.2915 25.813C19.2627 25.6474 18.3122 25.1616 17.5753 24.4247C16.8384 23.6878 16.3526 22.7374 16.187 21.7085C16.0215 20.6796 16.1846 19.6247 16.6531 18.6938C17.1216 17.763 17.8717 17.0035 18.7968 16.5236ZM22.4855 11.4342C20.49 11.1383 18.452 11.4791 16.6614 12.4082C14.8708 13.3373 13.4187 14.8074 12.5117 16.6094C11.6048 18.4113 11.2891 20.4533 11.6096 22.445C11.9301 24.4367 12.8704 26.2767 14.2969 27.7031C15.7233 29.1296 17.5633 30.0699 19.555 30.3904C21.5467 30.7109 23.5887 30.3952 25.3906 29.4883C27.1926 28.5813 28.6627 27.1292 29.5918 25.3386C30.5209 23.548 30.8617 21.51 30.5658 19.5145C30.264 17.479 29.3155 15.5946 27.8605 14.1395C26.4054 12.6845 24.521 11.736 22.4855 11.4342Z" stroke="black" stroke-linecap="round" stroke-linejoin="round"/>
</g>
<defs>
<filter id="filter0_i_26_427" x="0" y="0" width="42" height="46" filterUnits="userSpaceOnUse" color-interpolation-filters="sRGB">
<feFlood flood-opacity="0" result="BackgroundImageFix"/>
<feBlend mode="normal" in="SourceGraphic" in2="BackgroundImageFix" result="shape"/>
<feColorMatrix in="SourceAlpha" type="matrix" values="0 0 0 0 0 0 0 0 0 0 0 0 0 0 0 0 0 0 127 0" result="hardAlpha"/>
<feOffset dy="4"/>
<feGaussianBlur stdDeviation="2"/>
<feComposite in2="hardAlpha" operator="arithmetic" k2="-1" k3="1"/>
<feColorMatrix type="matrix" values="0 0 0 0 0 0 0 0 0 0 0 0 0 0 0 0 0 0 0.25 0"/>
<feBlend mode="normal" in2="shape" result="effect1_innerShadow_26_427"/>
</filter>
</defs>
</svg>
