<svg width="42" height="42" viewBox="0 0 42 42" fill="none" xmlns="http://www.w3.org/2000/svg">
<g id="Vector (Stroke)">
<g filter="url(#filter0_i_26_365)">
<path fill-rule="evenodd" clip-rule="evenodd" d="M1 2.73913C1 1.77864 1.74619 1 2.66667 1H9.33333C10.1277 1 10.8117 1.58502 10.9676 2.39781L12.3674 9.69565H39.3333C39.83 9.69565 40.3009 9.92683 40.6175 10.3262C40.9341 10.7255 41.0635 11.2514 40.9705 11.7606L38.3014 26.3649C38.0728 27.5659 37.4466 28.6448 36.5325 29.4126C35.623 30.1766 34.486 30.5843 33.3189 30.5652H17.1477C15.9806 30.5843 14.8437 30.1766 13.9341 29.4126C13.0204 28.6451 12.3944 27.5668 12.1655 26.3664C12.1655 26.3659 12.1656 26.3669 12.1655 26.3664L9.38131 11.8508C9.37002 11.8028 9.36063 11.754 9.35325 11.7045L7.96719 4.47826H2.66667C1.74619 4.47826 1 3.69963 1 2.73913ZM13.0345 13.1739L15.4347 25.6873C15.5109 26.0876 15.7197 26.4472 16.0243 26.7032C16.329 26.9591 16.7103 27.0951 17.1014 27.0873L17.1333 27.087H33.3333L33.3653 27.0873C33.7563 27.0951 34.1376 26.9591 34.4423 26.7032C34.7456 26.4484 34.9538 26.091 35.0309 25.6929L37.3188 13.1739H13.0345ZM12.6667 37.5217C12.6667 35.6007 14.159 34.0435 16 34.0435C17.8409 34.0435 19.3333 35.6007 19.3333 37.5217C19.3333 39.4427 17.8409 41 16 41C14.159 41 12.6667 39.4427 12.6667 37.5217ZM31 37.5217C31 35.6007 32.4924 34.0435 34.3333 34.0435C36.1743 34.0435 37.6667 35.6007 37.6667 37.5217C37.6667 39.4427 36.1743 41 34.3333 41C32.4924 41 31 39.4427 31 37.5217Z" fill="#C99383"/>
</g>
<path d="M12.1655 26.3664C12.3944 27.5668 13.0204 28.6451 13.9341 29.4126C14.8437 30.1766 15.9806 30.5843 17.1477 30.5652H33.3189C34.486 30.5843 35.623 30.1766 36.5325 29.4126C37.4466 28.6448 38.0728 27.5659 38.3014 26.3649L40.9705 11.7606C41.0635 11.2514 40.9341 10.7255 40.6175 10.3262C40.3009 9.92683 39.83 9.69565 39.3333 9.69565H12.3674L10.9676 2.39781C10.8117 1.58502 10.1277 1 9.33333 1H2.66667C1.74619 1 1 1.77864 1 2.73913C1 3.69963 1.74619 4.47826 2.66667 4.47826H7.96719L9.35325 11.7045C9.36063 11.754 9.37002 11.8028 9.38131 11.8508L12.1655 26.3664ZM12.1655 26.3664C12.1656 26.3669 12.1655 26.3659 12.1655 26.3664ZM13.0345 13.1739H37.3188L35.0309 25.6929C34.9538 26.091 34.7456 26.4484 34.4423 26.7032C34.1376 26.9591 33.7563 27.0951 33.3653 27.0873L33.3333 27.087H17.1333L17.1014 27.0873C16.7103 27.0951 16.329 26.9591 16.0243 26.7032C15.7197 26.4472 15.5109 26.0876 15.4347 25.6873L13.0345 13.1739ZM16 34.0435C14.159 34.0435 12.6667 35.6007 12.6667 37.5217C12.6667 39.4427 14.159 41 16 41C17.8409 41 19.3333 39.4427 19.3333 37.5217C19.3333 35.6007 17.8409 34.0435 16 34.0435ZM34.3333 34.0435C32.4924 34.0435 31 35.6007 31 37.5217C31 39.4427 32.4924 41 34.3333 41C36.1743 41 37.6667 39.4427 37.6667 37.5217C37.6667 35.6007 36.1743 34.0435 34.3333 34.0435Z" stroke="black" stroke-linecap="round" stroke-linejoin="round"/>
</g>
<defs>
<filter id="filter0_i_26_365" x="0.5" y="0.5" width="41" height="45" filterUnits="userSpaceOnUse" color-interpolation-filters="sRGB">
<feFlood flood-opacity="0" result="BackgroundImageFix"/>
<feBlend mode="normal" in="SourceGraphic" in2="BackgroundImageFix" result="shape"/>
<feColorMatrix in="SourceAlpha" type="matrix" values="0 0 0 0 0 0 0 0 0 0 0 0 0 0 0 0 0 0 127 0" result="hardAlpha"/>
<feOffset dy="4"/>
<feGaussianBlur stdDeviation="2"/>
<feComposite in2="hardAlpha" operator="arithmetic" k2="-1" k3="1"/>
<feColorMatrix type="matrix" values="0 0 0 0 0 0 0 0 0 0 0 0 0 0 0 0 0 0 0.25 0"/>
<feBlend mode="normal" in2="shape" result="effect1_innerShadow_26_365"/>
</filter>
</defs>
</svg>
