<svg width="42" height="31" viewBox="0 0 42 31" fill="none" xmlns="http://www.w3.org/2000/svg">
<g id="Vector (Stroke)">
<g filter="url(#filter0_i_26_429)">
<path fill-rule="evenodd" clip-rule="evenodd" d="M20.9998 1C20.9998 1 21 1 21 2.64948L21 4.29897L20.8742 4.29915C20.7908 4.29933 20.6676 4.2997 20.5095 4.30043C20.1933 4.3019 19.7376 4.30484 19.1815 4.31073C18.0686 4.32251 16.5568 4.34607 14.9581 4.39309C13.3567 4.44018 11.6814 4.51045 10.2374 4.6147C8.75727 4.72155 7.65751 4.85584 7.10958 4.99867C6.61177 5.1402 6.16 5.4083 5.79929 5.77635C5.44742 6.13538 5.19425 6.57722 5.06344 7.0598C4.56423 9.8204 4.32011 12.6203 4.33411 15.4248L4.3342 15.4433C4.31633 18.2594 4.55862 21.0711 5.05822 23.8433C5.20259 24.3012 5.45829 24.7176 5.80335 25.0556C6.16485 25.4097 6.61225 25.6659 7.10256 25.7995C7.64807 25.943 8.75091 26.078 10.2374 26.1853C11.6814 26.2895 13.3567 26.3598 14.9581 26.4069C16.5568 26.4539 18.0686 26.4775 19.1815 26.4893C19.7376 26.4952 20.1933 26.4981 20.5095 26.4996C20.6676 26.5003 20.7908 26.5007 20.8742 26.5008H21.1258C21.2092 26.5007 21.3324 26.5003 21.4905 26.4996C21.8067 26.4981 22.2624 26.4952 22.8185 26.4893C23.9314 26.4775 25.4432 26.4539 27.0419 26.4069C28.6433 26.3598 30.3186 26.2895 31.7626 26.1853C33.2427 26.0784 34.3425 25.9442 34.8904 25.8013C35.3882 25.6598 35.84 25.3917 36.2007 25.0236C36.5526 24.6646 36.8057 24.2228 36.9366 23.7402C37.4319 21.0006 37.676 18.2222 37.6659 15.4389L37.6658 15.4226C37.6838 12.5968 37.4397 9.7754 36.9366 6.99384C36.8058 6.51126 36.5526 6.06941 36.2007 5.71037C35.8441 5.34653 35.3986 5.08038 34.9075 4.9376C34.341 4.80569 33.2371 4.68409 31.7731 4.58759C30.3261 4.49222 28.6485 4.42799 27.0462 4.38496C25.4463 4.342 23.9336 4.32048 22.8201 4.30972C22.2637 4.30434 21.8076 4.30165 21.4911 4.30031L21.1261 4.29913L21 4.29897L21 2.64948C21 1 20.9998 1 20.9998 1L21.1328 1.00017C21.2187 1.00034 21.3445 1.00069 21.5054 1.00137C21.8272 1.00273 22.2893 1.00546 22.8526 1.0109C23.9786 1.02179 25.5116 1.04357 27.1366 1.0872C28.7591 1.13077 30.4855 1.19644 31.9946 1.29591C33.4606 1.39254 34.8518 1.52811 35.728 1.73987C35.7475 1.74459 35.767 1.74966 35.7864 1.75508C36.8531 2.05379 37.8213 2.62584 38.5932 3.41344C39.3651 4.20104 39.9134 5.17631 40.1825 6.24073C40.1916 6.27636 40.1994 6.31228 40.2059 6.34843C40.7524 9.34673 41.0179 12.3886 40.9991 15.4352C41.0095 18.4362 40.744 21.432 40.206 24.3855C40.1994 24.4217 40.1916 24.4576 40.1825 24.4933C39.9134 25.5577 39.3651 26.533 38.5932 27.3206C37.8213 28.1082 36.8531 28.6802 35.7864 28.9789L35.7632 28.9852C34.8739 29.2206 33.4705 29.3697 32.0051 29.4755C30.4931 29.5847 28.7643 29.6567 27.1409 29.7044C25.5147 29.7523 23.9808 29.7761 22.8542 29.788C22.2906 29.794 21.8281 29.797 21.5061 29.7985C21.3451 29.7992 21.2191 29.7996 21.1332 29.7998L21.0007 29.8L20.8668 29.7998C20.7809 29.7996 20.6549 29.7992 20.4939 29.7985C20.1719 29.797 19.7094 29.794 19.1458 29.788C18.0192 29.7761 16.4853 29.7523 14.8591 29.7044C13.2357 29.6567 11.5069 29.5847 9.99491 29.4755C8.52947 29.3697 7.12614 29.2206 6.23677 28.9852L6.2275 28.9828C5.18243 28.6998 4.22878 28.1547 3.45869 27.4004C2.68859 26.6461 2.12808 25.7079 1.83132 24.6765C1.81625 24.6242 1.80381 24.5711 1.79405 24.5175C1.24768 21.5196 0.982178 18.4781 1.00093 15.4319C0.986405 12.4084 1.25188 9.38999 1.79404 6.41448C1.80063 6.37831 1.80844 6.34236 1.81746 6.30671C2.08664 5.24229 2.63487 4.26702 3.40676 3.47942C4.17866 2.69182 5.14689 2.11977 6.21365 1.82106L6.23677 1.81477C7.12614 1.57935 8.52947 1.43026 9.99491 1.32447C11.5069 1.21532 13.2357 1.14332 14.8591 1.09557C16.4853 1.04775 18.0192 1.02388 19.1458 1.01195C19.7094 1.00598 20.1719 1.003 20.4939 1.0015C20.6549 1.00075 20.7809 1.00038 20.8668 1.00019L20.9998 1ZM16.4122 8.61337C16.9252 8.31802 17.5582 8.31496 18.074 8.60534L27.6569 13.9992C28.1779 14.2924 28.4996 14.8398 28.4996 15.433C28.4996 16.0261 28.1779 16.5736 27.6569 16.8668L18.074 22.2606C17.5582 22.551 16.9252 22.548 16.4122 22.2526C15.8992 21.9573 15.5836 21.4142 15.5836 20.8268V10.0392C15.5836 9.45179 15.8992 8.90872 16.4122 8.61337ZM18.9168 12.8748V17.9912L23.4618 15.433L18.9168 12.8748Z" fill="#C99383"/>
</g>
<path d="M20.9998 1V0.499999L20.999 0.500001L20.8661 0.50019L20.8658 0.50019C20.7794 0.500379 20.653 0.500756 20.4916 0.501506C20.1687 0.503005 19.7053 0.505999 19.1405 0.511978C18.0119 0.523928 16.4746 0.547844 14.8444 0.595789C13.2177 0.643633 11.481 0.715888 9.95891 0.825771C8.49691 0.931313 7.04944 1.08243 6.10882 1.33141L6.10882 1.3314L6.10538 1.33234L6.08226 1.33863L6.08226 1.33862L6.07883 1.33958C4.92814 1.66179 3.88315 2.279 3.04967 3.12944C2.21615 3.97993 1.62369 5.03355 1.33272 6.18412C1.32094 6.23068 1.31074 6.27761 1.30214 6.32485L1.78862 6.41349L1.30214 6.32485C0.754616 9.32982 0.486422 12.3781 0.50092 15.4316C0.482155 18.508 0.750372 21.5796 1.30215 24.6072C1.3149 24.6772 1.33114 24.7464 1.35081 24.8148C1.67158 25.9296 2.27727 26.9431 3.10881 27.7576C3.9403 28.5721 4.96952 29.1601 6.0968 29.4654L6.09955 29.4661L6.10882 29.4686L6.23677 28.9852L6.10882 29.4686C7.04944 29.7176 8.49691 29.8687 9.95891 29.9742C11.481 30.0841 13.2177 30.1564 14.8444 30.2042C16.4746 30.2522 18.0119 30.2761 19.1405 30.288C19.7052 30.294 20.1687 30.297 20.4916 30.2985C20.653 30.2992 20.7794 30.2996 20.8657 30.2998L20.8661 30.2998L21 30.3L21.0015 30.3L21.1339 30.2998L21.1343 30.2998C21.2206 30.2996 21.347 30.2992 21.5084 30.2985C21.8313 30.297 22.2947 30.294 22.8595 30.288C23.9881 30.2761 25.5254 30.2522 27.1556 30.2042C28.7823 30.1564 30.519 30.0841 32.0411 29.9742C33.5031 29.8687 34.9506 29.7176 35.8912 29.4686L35.8947 29.4677L35.9178 29.4614L35.9212 29.4604C37.0719 29.1382 38.1168 28.521 38.9503 27.6706C39.7839 26.8201 40.3763 25.7665 40.6673 24.6159C40.6791 24.5693 40.6893 24.5223 40.6979 24.4751C41.2413 21.4923 41.5094 18.4667 41.4991 15.4358C41.5179 12.3589 41.2497 9.28684 40.6978 6.25878C40.6892 6.21158 40.6791 6.16468 40.6673 6.11815C40.3763 4.96757 39.7839 3.91394 38.9503 3.06347C38.1168 2.21302 37.0719 1.59581 35.9212 1.27361C35.896 1.26657 35.8708 1.25998 35.8455 1.25386L35.728 1.73987L35.8455 1.25386C34.922 1.03067 33.4902 0.893406 32.0275 0.796996C30.5091 0.696918 28.7755 0.631035 27.15 0.587385C25.5213 0.54365 23.9853 0.52183 22.8575 0.510927C22.2932 0.505471 21.8301 0.50274 21.5075 0.501373C21.3463 0.500689 21.22 0.500346 21.1338 0.500173L21.1335 0.500173L21.0004 0.5L20.9998 0.997034C20.9998 0.99802 20.9998 0.999009 20.9998 1ZM21.1332 29.7998L21.0007 29.8L40.9991 15.4352C41.0095 18.4362 40.744 21.432 40.206 24.3855C40.1994 24.4217 40.1916 24.4576 40.1825 24.4933C39.9134 25.5577 39.3651 26.533 38.5932 27.3206C37.8213 28.1082 36.8531 28.6802 35.7864 28.9789L35.7632 28.9852C34.8739 29.2206 33.4705 29.3697 32.0051 29.4755C30.4931 29.5847 28.7643 29.6567 27.1409 29.7044C25.5147 29.7523 23.9808 29.7761 22.8542 29.788C22.2906 29.794 21.8281 29.797 21.5061 29.7985C21.3451 29.7992 21.2191 29.7996 21.1332 29.7998ZM20.5119 4.80043C20.6693 4.7997 20.7919 4.79933 20.8749 4.79915L20.8753 4.79915L20.9993 4.79897H21.0007L21.1245 4.79913L21.1254 4.79913L21.489 4.8003C21.4891 4.8003 21.4892 4.8003 21.4893 4.8003C21.805 4.80164 22.26 4.80432 22.8153 4.80969C23.9269 4.82044 25.4366 4.84192 27.0328 4.88478C28.6321 4.92773 30.3025 4.99174 31.7402 5.08651C33.1945 5.18236 34.2544 5.30109 34.7808 5.4215C35.1847 5.54129 35.5506 5.76133 35.8436 6.06035C36.131 6.3536 36.3387 6.71294 36.4485 7.10493C36.9435 9.84892 37.1835 12.632 37.1658 15.4195L37.1658 15.4244L37.1659 15.4407C37.1759 18.186 36.9357 20.9266 36.4485 23.6292C36.3387 24.0212 36.131 24.3804 35.8436 24.6737C35.5453 24.9781 35.1715 25.2006 34.7589 25.3189C34.2591 25.4482 33.205 25.5799 31.7266 25.6866C30.2926 25.7901 28.6253 25.8601 27.0272 25.9071C25.4325 25.954 23.9241 25.9775 22.8133 25.9893C22.2583 25.9952 21.8035 25.9981 21.4881 25.9996C21.331 26.0003 21.2085 26.0007 21.1256 26.0008C21.1253 26.0008 21.125 26.0009 21.1247 26.0009H20.8753C20.875 26.0009 20.8747 26.0008 20.8744 26.0008C20.7915 26.0007 20.669 26.0003 20.5119 25.9996C20.1965 25.9981 19.7417 25.9952 19.1867 25.9893C18.0759 25.9775 16.5675 25.954 14.9728 25.9071C13.3747 25.8601 11.7074 25.7901 10.2734 25.6866C8.78515 25.5792 7.72734 25.4464 7.23194 25.3165C6.82437 25.2051 6.45301 24.9921 6.15323 24.6984C5.87394 24.4248 5.66552 24.0898 5.54441 23.7219C5.05426 20.9906 4.81659 18.2207 4.83419 15.4465H4.83422L4.83419 15.4409L4.8341 15.4223C4.82029 12.656 5.06041 9.89412 5.55148 7.17083C5.66131 6.77887 5.869 6.41956 6.15638 6.12633C6.45471 5.82193 6.82851 5.59939 7.24106 5.48111C7.74085 5.35185 8.79499 5.22013 10.2734 5.1134C11.7074 5.00989 13.3747 4.93987 14.9728 4.89287C16.5675 4.84597 18.0759 4.82246 19.1867 4.8107C19.7417 4.80483 20.1965 4.80189 20.5119 4.80043ZM18.3193 8.16962C17.6497 7.7927 16.8287 7.79665 16.1627 8.18006C15.4962 8.56378 15.0836 9.27122 15.0836 10.0392V20.8268C15.0836 21.5948 15.4962 22.3022 16.1627 22.6859C16.8287 23.0693 17.6497 23.0733 18.3193 22.6964L27.9022 17.3025C28.579 16.9216 28.9996 16.2085 28.9996 15.433C28.9996 14.6575 28.579 13.9444 27.9022 13.5634L18.3193 8.16962ZM19.4168 13.73L22.4424 15.433L19.4168 17.136V13.73Z" stroke="black" stroke-linecap="round" stroke-linejoin="round"/>
</g>
<defs>
<filter id="filter0_i_26_429" x="0" y="0" width="42" height="34.8" filterUnits="userSpaceOnUse" color-interpolation-filters="sRGB">
<feFlood flood-opacity="0" result="BackgroundImageFix"/>
<feBlend mode="normal" in="SourceGraphic" in2="BackgroundImageFix" result="shape"/>
<feColorMatrix in="SourceAlpha" type="matrix" values="0 0 0 0 0 0 0 0 0 0 0 0 0 0 0 0 0 0 127 0" result="hardAlpha"/>
<feOffset dy="4"/>
<feGaussianBlur stdDeviation="2"/>
<feComposite in2="hardAlpha" operator="arithmetic" k2="-1" k3="1"/>
<feColorMatrix type="matrix" values="0 0 0 0 0 0 0 0 0 0 0 0 0 0 0 0 0 0 0.25 0"/>
<feBlend mode="normal" in2="shape" result="effect1_innerShadow_26_429"/>
</filter>
</defs>
</svg>
